<svg xmlns="http://www.w3.org/2000/svg" viewBox="0 0 39.35 48">
    <defs>
        <style>
            .cls-1-stl-und,.cls-3-stl-und{fill:#fff;}.cls-1-stl-und,.cls-2-stl-und,.cls-3-stl-und{stroke:#1d1d1b;}.cls-1-stl-und,.cls-2-stl-und,.cls-4-stl-und{stroke-miterlimit:10;}.cls-2-stl-und,.cls-4-stl-und{fill:none;}.cls-3-stl-und{stroke-linecap:round;stroke-linejoin:round;stroke-width:0.5px;}.cls-4-stl-und{stroke:#000;}
        </style>
    </defs>
    <rect y="0" width="100" height="50" class="tooltip-panel" style="opacity: 0;" x="-40"></rect>
    <g id="DISCONNECTORSTL-undefined" class="undefined">
        <line class="cls-1-stl-und" x1="3.5" y1="28.2" x2="3.5"/>
        <line class="cls-1-stl-und" x1="34.24" y1="17.27" x2="34.24" y2="6.7"/>
        <line class="cls-1-stl-und" x1="36.54" y1="8.42" x2="36.54" y2="15.56"/>
        <line class="cls-1-stl-und" x1="38.85" y1="13.18" x2="38.85" y2="10.72"/>
        <line class="cls-2-stl-und" x1="15.52" y1="11.99" x2="3.5" y2="11.99"/>
        <line class="cls-1-stl-und" x1="3.5" y1="34.2" x2="3.5" y2="48"/>
        <line class="cls-2-stl-und" x1="34.24" y1="12.06" x2="21.84" y2="12.06"/>
        <line class="cls-3-stl-und" x1="5.71" y1="28.99" x2="1.29" y2="33.41"/>
        <line class="cls-3-stl-und" x1="1.29" y1="28.99" x2="5.71" y2="33.41"/>
        <line class="cls-3-stl-und" x1="16.63" y1="9.85" x2="21.05" y2="14.27"/>
        <g>
            <line class="cls-3-stl-und" x1="20.94" y1="9.96" x2="16.74" y2="14.16"/>
            <line class="cls-3-stl-und" x1="16.73" y1="9.95" x2="20.95" y2="14.17"/>
            <circle class="cls-4-stl-und" cx="18.84" cy="12.06" r="3"/>
        </g>
        <g>
            <line class="cls-3-stl-und" x1="5.6" y1="29.1" x2="1.4" y2="33.31"/>
            <line class="cls-3-stl-und" x1="1.39" y1="29.1" x2="5.61" y2="33.31"/>
            <circle class="cls-4-stl-und" cx="3.5" cy="31.2" r="3"/>
        </g>
    </g>
</svg>
