<?xml version="1.0" encoding="UTF-8" standalone="no"?>
<svg viewBox="0 0 680.0 557.0" xmlns="http://www.w3.org/2000/svg">
    <style>
        <![CDATA[
/* ----------------------------------------------------------------------- */
/* File: tautologies.css ------------------------------------------------- */
.sld-out .sld-arrow-in {visibility: hidden}
.sld-in .sld-arrow-out {visibility: hidden}
.sld-closed .sld-sw-open {visibility: hidden}
.sld-open .sld-sw-closed {visibility: hidden}
.sld-hidden-node {visibility: hidden}
.sld-top-feeder .sld-label {dominant-baseline: auto}
.sld-bottom-feeder .sld-label {dominant-baseline: hanging}
.sld-active-power .sld-label {dominant-baseline: middle}
.sld-reactive-power .sld-label {dominant-baseline: middle}
/* ----------------------------------------------------------------------- */
/* File: topologicalBaseVoltages.css ------------------------------------- */
.sld-disconnected {--sld-vl-color: #808080}
.sld-vl300to500-0 {--sld-vl-color: #FF0000}
.sld-vl300to500-1 {--sld-vl-color: #7F6C00}
.sld-vl300to500-2 {--sld-vl-color: #F6B2FF}
.sld-vl300to500-3 {--sld-vl-color: #996700}
.sld-vl300to500-4 {--sld-vl-color: #FF85EB}
.sld-vl300to500-5 {--sld-vl-color: #B25B00}
.sld-vl300to500-6 {--sld-vl-color: #FF59B5}
.sld-vl300to500-7 {--sld-vl-color: #CC4400}
.sld-vl300to500-8 {--sld-vl-color: #FF2C67}
.sld-vl300to500-9 {--sld-vl-color: #E52600}
.sld-vl180to300-0 {--sld-vl-color: #218B21}
.sld-vl180to300-1 {--sld-vl-color: #0D4940}
.sld-vl180to300-2 {--sld-vl-color: #DFDAB9}
.sld-vl180to300-3 {--sld-vl-color: #105640}
.sld-vl180to300-4 {--sld-vl-color: #C2CB92}
.sld-vl180to300-5 {--sld-vl-color: #14643C}
.sld-vl180to300-6 {--sld-vl-color: #95B66B}
.sld-vl180to300-7 {--sld-vl-color: #187036}
.sld-vl180to300-8 {--sld-vl-color: #5FA046}
.sld-vl180to300-9 {--sld-vl-color: #1C7E2D}
.sld-vl120to180-0 {--sld-vl-color: #00AFAE}
.sld-vl120to180-1 {--sld-vl-color: #000D58}
.sld-vl120to180-2 {--sld-vl-color: #B8E7B2}
.sld-vl120to180-3 {--sld-vl-color: #002169}
.sld-vl120to180-4 {--sld-vl-color: #85D993}
.sld-vl120to180-5 {--sld-vl-color: #003C7B}
.sld-vl120to180-6 {--sld-vl-color: #59CB8B}
.sld-vl120to180-7 {--sld-vl-color: #005C8C}
.sld-vl120to180-8 {--sld-vl-color: #2CBD94}
.sld-vl120to180-9 {--sld-vl-color: #00839E}
.sld-vl70to120-0 {--sld-vl-color: #CC5500}
.sld-vl70to120-1 {--sld-vl-color: #4A6600}
.sld-vl70to120-2 {--sld-vl-color: #EFB2DD}
.sld-vl70to120-3 {--sld-vl-color: #6E7A00}
.sld-vl70to120-4 {--sld-vl-color: #E685AE}
.sld-vl70to120-5 {--sld-vl-color: #8E8400}
.sld-vl70to120-6 {--sld-vl-color: #DD596B}
.sld-vl70to120-7 {--sld-vl-color: #A37B00}
.sld-vl70to120-8 {--sld-vl-color: #D4432C}
.sld-vl70to120-9 {--sld-vl-color: #B76B00}
.sld-vl50to70-0 {--sld-vl-color: #A020EF}
.sld-vl50to70-1 {--sld-vl-color: #7F0848}
.sld-vl50to70-2 {--sld-vl-color: #B7DBFE}
.sld-vl50to70-3 {--sld-vl-color: #960C6D}
.sld-vl50to70-4 {--sld-vl-color: #8DA6FE}
.sld-vl50to70-5 {--sld-vl-color: #AD109A}
.sld-vl50to70-6 {--sld-vl-color: #6F66FB}
.sld-vl50to70-7 {--sld-vl-color: #BC14C4}
.sld-vl50to70-8 {--sld-vl-color: #7F42F6}
.sld-vl50to70-9 {--sld-vl-color: #B11AD9}
.sld-vl30to50-0 {--sld-vl-color: #FF8290}
.sld-vl30to50-1 {--sld-vl-color: #7F6F41}
.sld-vl30to50-2 {--sld-vl-color: #F6D9FF}
.sld-vl30to50-3 {--sld-vl-color: #99784E}
.sld-vl30to50-4 {--sld-vl-color: #FFC3FB}
.sld-vl30to50-5 {--sld-vl-color: #B27D5B}
.sld-vl30to50-6 {--sld-vl-color: #FFADE3}
.sld-vl30to50-7 {--sld-vl-color: #CC7E68}
.sld-vl30to50-8 {--sld-vl-color: #FF97BF}
.sld-vl30to50-9 {--sld-vl-color: #E57B75}
.sld-vl0to30-0 {--sld-vl-color: #AAAE27}
.sld-vl0to30-1 {--sld-vl-color: #195B0F}
.sld-vl0to30-2 {--sld-vl-color: #EABABE}
.sld-vl0to30-3 {--sld-vl-color: #2D6C13}
.sld-vl0to30-4 {--sld-vl-color: #DDA193}
.sld-vl0to30-5 {--sld-vl-color: #477D17}
.sld-vl0to30-6 {--sld-vl-color: #CE9A6E}
.sld-vl0to30-7 {--sld-vl-color: #648D1C}
.sld-vl0to30-8 {--sld-vl-color: #BEA04A}
.sld-vl0to30-9 {--sld-vl-color: #869D22}
/* ----------------------------------------------------------------------- */
/* File : highlightLineStates.css ---------------------------------------- */
.sld-feeder-disconnected {stroke: black}
.sld-feeder-connected-disconnected {stroke-dasharray: 3,3}
.sld-feeder-disconnected-connected {stroke: black; stroke-dasharray: 3,3}
/* ----------------------------------------------------------------------- */
/* File : components.css ------------------------------------------------- */
/* Stroke black */
.sld-disconnector {stroke-width: 3; stroke: black; fill: none}
/* Stroke blue */
.sld-breaker {stroke-width: 2; stroke: blue; fill:white}
.sld-load-break-switch {stroke: blue; fill: white}
/* Stroke --sld-vl-color with fallback black */
.sld-bus-connection {fill: var(--sld-vl-color, black)}
.sld-cell-shape-flat .sld-bus-connection {visibility: hidden}
.sld-busbar-section {stroke: var(--sld-vl-color, black); stroke-width: 3; fill: none}
/* Stroke --sld-vl-color with fallback red */
.sld-wire {stroke: var(--sld-vl-color, #c80000); fill: none}
/* Stroke --sld-vl-color with fallback blue */
.sld-load {stroke: var(--sld-vl-color, blue); fill: none}
.sld-generator {stroke: var(--sld-vl-color, blue); fill: none}
.sld-two-wt {stroke: var(--sld-vl-color, blue); fill: none}
.sld-three-wt {stroke: var(--sld-vl-color, blue); fill: none}
.sld-winding {stroke: var(--sld-vl-color, blue); fill: none}
.sld-capacitor {stroke: var(--sld-vl-color, blue); fill: none}
.sld-inductor {stroke: var(--sld-vl-color, blue); fill: none}
.sld-pst {stroke: var(--sld-vl-color, blue); fill: none}
.sld-pst-arrow {stroke: black; fill: none}
.sld-svc {stroke: var(--sld-vl-color, blue); fill: none}
.sld-vsc {stroke: var(--sld-vl-color, blue); font-size: 7.43px; fill: none}
/* Stroke none & fill: --sld-vl-color */
.sld-node-infos {stroke: none; fill: var(--sld-vl-color, black)}
/* Stroke none & fill: black */
.sld-node {stroke: none; fill: black}
.sld-flash {stroke: none; fill: black}
.sld-lock {stroke: none; fill: black}
/* Fonts */
.sld-label {stroke: none; fill: black; font: 8px serif}
.sld-angle, .sld-voltage {font: 10px serif}
.sld-graph-label {font: 12px serif}
/* Specific */
.sld-grid {stroke: #003700; stroke-dasharray: 1,10}
.sld-feeder-info.sld-active-power {fill:black}
.sld-feeder-info.sld-reactive-power {fill:blue}
.sld-frame {fill: var(--sld-background-color, transparent)}
/* Stroke maroon for fictitious switch */
.sld-breaker.sld-fictitious {stroke: maroon}
.sld-disconnector.sld-fictitious {stroke: maroon}
.sld-load-break-switch.sld-fictitious {stroke: maroon}
.sld-busbar-section.sld-fictitious {stroke: var(--sld-vl-color, #c80000); stroke-width: 1}

]]>
    </style>
    <rect class="sld-frame" height="100%" width="100%"/>
    <g>
        <g class="sld-busbar-section sld-vl180to300-0" id="idO" transform="translate(52.5,252.0)">
            <line x1="0" x2="575.0" y1="0" y2="0"/>
            <text class="sld-label" id="O_NW_LABEL" x="-5.0" y="-5.0">O</text>
        </g>
        <g class="sld-busbar-section sld-vl180to300-0" id="idP" transform="translate(52.5,277.0)">
            <line x1="0" x2="575.0" y1="0" y2="0"/>
            <text class="sld-label" id="P_NW_LABEL" x="-5.0" y="-5.0">P</text>
        </g>
        <g class="sld-intern-cell sld-cell-shape-vertical" id="idINTERN_32_0">
            <g class="sld-wire sld-vl180to300-0" id="_95_N_95_AH_95_INTERNAL_95_N_95_BJ">
                <polyline points="115.0,252.0,115.0,212.0"/>
            </g>
            <g class="sld-wire sld-vl180to300-0" id="_95_N_95_INTERNAL_95_N_95_BJ_95_BJ">
                <polyline points="115.0,212.0,100.0,212.0"/>
            </g>
            <g class="sld-wire sld-vl180to300-0" id="_95_N_95_INTERNAL_95_N_95_BJ_95_BJ">
                <polyline points="65.0,212.0,80.0,212.0"/>
            </g>
            <g class="sld-wire sld-vl180to300-0" id="_95_N_95_AJ_95_INTERNAL_95_N_95_BJ">
                <polyline points="65.0,277.0,65.0,212.0"/>
            </g>
            <g class="sld-disconnector sld-closed sld-vl180to300-0" id="idAH" transform="translate(111.0,248.0)">
                <path class="sld-sw-closed" d="M0,0 8,8 M8,0 0,8"/>
                <path class="sld-sw-open" d="M8,0 0,8"/>
            </g>
            <g class="sld-node sld-hidden-node sld-fictitious sld-vl180to300-0" id="idINTERNAL_95_N_95_BJ" transform="translate(111.0,208.0)">
                <circle cx="4" cy="4" r="4"/>
            </g>
            <g class="sld-breaker sld-closed sld-vl180to300-0" id="idBJ" transform="translate(80.0,202.0)">
                <path class="sld-sw-closed" d="M1,1 V19 H19 V1z M10,5 V15" transform="rotate(90.0,10.0,10.0)"/>
                <path class="sld-sw-open" d="M1,1 V19 H19 V1z M5,10 H15" transform="rotate(90.0,10.0,10.0)"/>
            </g>
            <g class="sld-node sld-hidden-node sld-fictitious sld-vl180to300-0" id="idINTERNAL_95_N_95_BJ" transform="translate(61.0,208.0)">
                <circle cx="4" cy="4" r="4"/>
            </g>
            <g class="sld-disconnector sld-closed sld-vl180to300-0" id="idAJ" transform="translate(61.0,273.0)">
                <path class="sld-sw-closed" d="M0,0 8,8 M8,0 0,8"/>
                <path class="sld-sw-open" d="M8,0 0,8"/>
            </g>
        </g>
        <g class="sld-extern-cell" id="idEXTERN_32_1">
            <g class="sld-wire sld-vl180to300-0" id="_95_N_95_R_95_INTERNAL_95_N_95_19">
                <polyline points="415.0,252.0,415.0,222.0"/>
            </g>
            <g class="sld-wire sld-vl180to300-0" id="_95_N_95_AL_95_INTERNAL_95_N_95_19">
                <polyline points="415.0,277.0,415.0,222.0"/>
            </g>
            <g class="sld-wire sld-vl180to300-0" id="_95_N_95_INTERNAL_95_N_95_19_95_BX">
                <polyline points="415.0,222.0,415.0,192.0"/>
            </g>
            <g class="sld-wire sld-vl180to300-0" id="_95_N_95_BX_95_INTERNAL_95_N_95_CG">
                <polyline points="415.0,172.0,415.0,142.0"/>
            </g>
            <g class="sld-wire sld-vl180to300-0" id="_95_N_95_INTERNAL_95_N_95_CG_95_CG">
                <polyline points="415.0,142.0,415.0,84.5"/>
            </g>
            <g class="sld-active-power sld-feeder-info sld-out" id="idCG_ARROW_ACTIVE" transform="translate(410.0,99.5)">
                <polygon class="sld-arrow-in" points="0,0 10,0 5,10"/>
                <polygon class="sld-arrow-out" points="5,0 10,10 0,10"/>
                <text class="sld-label" x="15.0" y="5.0">90</text>
            </g>
            <g class="sld-reactive-power sld-feeder-info sld-in" id="idCG_ARROW_REACTIVE" transform="translate(410.0,119.5)">
                <polygon class="sld-arrow-in" points="0,0 10,0 5,10"/>
                <polygon class="sld-arrow-out" points="5,0 10,10 0,10"/>
                <text class="sld-label" x="15.0" y="5.0">-52</text>
            </g>
            <g class="sld-disconnector sld-open sld-disconnected" id="idR" transform="translate(411.0,248.0)">
                <path class="sld-sw-closed" d="M0,0 8,8 M8,0 0,8"/>
                <path class="sld-sw-open" d="M8,0 0,8"/>
            </g>
            <g class="sld-node sld-hidden-node sld-fictitious sld-vl180to300-0" id="idINTERNAL_95_N_95_19" transform="translate(411.0,218.0)">
                <circle cx="4" cy="4" r="4"/>
            </g>
            <g class="sld-disconnector sld-closed sld-vl180to300-0" id="idAL" transform="translate(411.0,273.0)">
                <path class="sld-sw-closed" d="M0,0 8,8 M8,0 0,8"/>
                <path class="sld-sw-open" d="M8,0 0,8"/>
            </g>
            <g class="sld-breaker sld-closed sld-vl180to300-0" id="idBX" transform="translate(405.0,172.0)">
                <path class="sld-sw-closed" d="M1,1 V19 H19 V1z M10,5 V15"/>
                <path class="sld-sw-open" d="M1,1 V19 H19 V1z M5,10 H15"/>
            </g>
            <g class="sld-node sld-hidden-node sld-fictitious sld-vl180to300-0" id="idINTERNAL_95_N_95_CG" transform="translate(411.0,138.0)">
                <circle cx="4" cy="4" r="4"/>
            </g>
            <g class="sld-load sld-top-feeder sld-vl180to300-0" id="idCG" transform="translate(407.0,75.5)">
                <rect height="9" width="16"/>
                <line x1="0" x2="16" y1="0" y2="9"/>
                <line x1="16" x2="0" y1="0" y2="9"/>
                <text class="sld-label" id="CG_N_LABEL" x="-5.0" y="-5.0">CG</text>
            </g>
        </g>
        <g class="sld-extern-cell" id="idEXTERN_32_2">
            <g class="sld-wire sld-vl180to300-0" id="_95_N_95_T_95_INTERNAL_95_N_95_17">
                <polyline points="465.0,252.0,465.0,307.0"/>
            </g>
            <g class="sld-wire sld-vl180to300-0" id="_95_N_95_AN_95_INTERNAL_95_N_95_17">
                <polyline points="465.0,277.0,465.0,307.0"/>
            </g>
            <g class="sld-wire sld-vl180to300-0" id="_95_N_95_INTERNAL_95_N_95_17_95_BV">
                <polyline points="465.0,307.0,465.0,351.0"/>
            </g>
            <g class="sld-wire sld-vl180to300-0" id="_95_N_95_BV_95_INTERNAL_95_N_95_CF">
                <polyline points="465.0,371.0,465.0,415.0"/>
            </g>
            <g class="sld-wire sld-vl180to300-0" id="_95_N_95_INTERNAL_95_N_95_CF_95_CF">
                <polyline points="465.0,415.0,465.0,472.5"/>
            </g>
            <g class="sld-reactive-power sld-feeder-info sld-in" id="idCF_ARROW_REACTIVE" transform="translate(460.0,447.5)">
                <polygon class="sld-arrow-in" points="0,0 10,0 5,10" transform="rotate(180.0,5.0,5.0)"/>
                <polygon class="sld-arrow-out" points="5,0 10,10 0,10" transform="rotate(180.0,5.0,5.0)"/>
                <text class="sld-label" x="15.0" y="5.0">-24</text>
            </g>
            <g class="sld-active-power sld-feeder-info sld-out" id="idCF_ARROW_ACTIVE" transform="translate(460.0,427.5)">
                <polygon class="sld-arrow-in" points="0,0 10,0 5,10" transform="rotate(180.0,5.0,5.0)"/>
                <polygon class="sld-arrow-out" points="5,0 10,10 0,10" transform="rotate(180.0,5.0,5.0)"/>
                <text class="sld-label" x="15.0" y="5.0">8</text>
            </g>
            <g class="sld-disconnector sld-open sld-disconnected" id="idT" transform="translate(461.0,248.0)">
                <path class="sld-sw-closed" d="M0,0 8,8 M8,0 0,8"/>
                <path class="sld-sw-open" d="M8,0 0,8"/>
            </g>
            <g class="sld-node sld-hidden-node sld-fictitious sld-vl180to300-0" id="idINTERNAL_95_N_95_17" transform="translate(461.0,303.0)">
                <circle cx="4" cy="4" r="4"/>
            </g>
            <g class="sld-disconnector sld-closed sld-vl180to300-0" id="idAN" transform="translate(461.0,273.0)">
                <path class="sld-sw-closed" d="M0,0 8,8 M8,0 0,8"/>
                <path class="sld-sw-open" d="M8,0 0,8"/>
            </g>
            <g class="sld-breaker sld-closed sld-vl180to300-0" id="idBV" transform="translate(455.0,351.0)">
                <path class="sld-sw-closed" d="M1,1 V19 H19 V1z M10,5 V15"/>
                <path class="sld-sw-open" d="M1,1 V19 H19 V1z M5,10 H15"/>
            </g>
            <g class="sld-node sld-hidden-node sld-fictitious sld-vl180to300-0" id="idINTERNAL_95_N_95_CF" transform="translate(461.0,411.0)">
                <circle cx="4" cy="4" r="4"/>
            </g>
            <g class="sld-load sld-bottom-feeder sld-vl180to300-0" id="idCF" transform="translate(457.0,472.5)">
                <rect height="9" width="16"/>
                <line x1="0" x2="16" y1="0" y2="9"/>
                <line x1="16" x2="0" y1="0" y2="9"/>
                <text class="sld-label" id="CF_S_LABEL" x="-5.0" y="14.0">CF</text>
            </g>
        </g>
        <g class="sld-extern-cell" id="idEXTERN_32_3">
            <g class="sld-wire sld-vl180to300-0" id="_95_N_95_V_95_INTERNAL_95_N_95_21">
                <polyline points="515.0,252.0,515.0,222.0"/>
            </g>
            <g class="sld-wire sld-vl180to300-0" id="_95_N_95_AP_95_INTERNAL_95_N_95_21">
                <polyline points="515.0,277.0,515.0,222.0"/>
            </g>
            <g class="sld-wire sld-vl180to300-0" id="_95_N_95_INTERNAL_95_N_95_21_95_BZ">
                <polyline points="515.0,222.0,515.0,192.0"/>
            </g>
            <g class="sld-wire sld-vl180to300-0" id="_95_N_95_BZ_95_INTERNAL_95_N_95_CH">
                <polyline points="515.0,172.0,515.0,142.0"/>
            </g>
            <g class="sld-wire sld-vl180to300-0" id="_95_N_95_INTERNAL_95_N_95_CH_95_CH">
                <polyline points="515.0,142.0,515.0,84.5"/>
            </g>
            <g class="sld-active-power sld-feeder-info sld-in" id="idCH_ARROW_ACTIVE" transform="translate(510.0,99.5)">
                <polygon class="sld-arrow-in" points="0,0 10,0 5,10"/>
                <polygon class="sld-arrow-out" points="5,0 10,10 0,10"/>
                <text class="sld-label" x="15.0" y="5.0">-5</text>
            </g>
            <g class="sld-reactive-power sld-feeder-info sld-out" id="idCH_ARROW_REACTIVE" transform="translate(510.0,119.5)">
                <polygon class="sld-arrow-in" points="0,0 10,0 5,10"/>
                <polygon class="sld-arrow-out" points="5,0 10,10 0,10"/>
                <text class="sld-label" x="15.0" y="5.0">5</text>
            </g>
            <g class="sld-disconnector sld-open sld-disconnected" id="idV" transform="translate(511.0,248.0)">
                <path class="sld-sw-closed" d="M0,0 8,8 M8,0 0,8"/>
                <path class="sld-sw-open" d="M8,0 0,8"/>
            </g>
            <g class="sld-node sld-hidden-node sld-fictitious sld-vl180to300-0" id="idINTERNAL_95_N_95_21" transform="translate(511.0,218.0)">
                <circle cx="4" cy="4" r="4"/>
            </g>
            <g class="sld-disconnector sld-closed sld-vl180to300-0" id="idAP" transform="translate(511.0,273.0)">
                <path class="sld-sw-closed" d="M0,0 8,8 M8,0 0,8"/>
                <path class="sld-sw-open" d="M8,0 0,8"/>
            </g>
            <g class="sld-breaker sld-closed sld-vl180to300-0" id="idBZ" transform="translate(505.0,172.0)">
                <path class="sld-sw-closed" d="M1,1 V19 H19 V1z M10,5 V15"/>
                <path class="sld-sw-open" d="M1,1 V19 H19 V1z M5,10 H15"/>
            </g>
            <g class="sld-node sld-hidden-node sld-fictitious sld-vl180to300-0" id="idINTERNAL_95_N_95_CH" transform="translate(511.0,138.0)">
                <circle cx="4" cy="4" r="4"/>
            </g>
            <g class="sld-load sld-top-feeder sld-vl180to300-0" id="idCH" transform="translate(507.0,75.5)">
                <rect height="9" width="16"/>
                <line x1="0" x2="16" y1="0" y2="9"/>
                <line x1="16" x2="0" y1="0" y2="9"/>
                <text class="sld-label" id="CH_N_LABEL" x="-5.0" y="-5.0">CH</text>
            </g>
        </g>
        <g class="sld-extern-cell" id="idEXTERN_32_4">
            <g class="sld-wire sld-disconnected" id="_95_N_95_X_95_INTERNAL_95_N_95_11">
                <polyline points="565.0,252.0,565.0,307.0"/>
            </g>
            <g class="sld-wire sld-disconnected" id="_95_N_95_AR_95_INTERNAL_95_N_95_11">
                <polyline points="565.0,277.0,565.0,307.0"/>
            </g>
            <g class="sld-wire sld-disconnected" id="_95_N_95_INTERNAL_95_N_95_11_95_BP">
                <polyline points="565.0,307.0,565.0,351.0"/>
            </g>
            <g class="sld-wire sld-disconnected" id="_95_N_95_BP_95_INTERNAL_95_N_95_CB">
                <polyline points="565.0,371.0,565.0,415.0"/>
            </g>
            <g class="sld-wire sld-disconnected" id="_95_N_95_INTERNAL_95_N_95_CB_95_CB">
                <polyline points="565.0,415.0,565.0,471.0"/>
            </g>
            <g class="sld-reactive-power sld-feeder-info sld-in" id="idCB_ARROW_REACTIVE" transform="translate(560.0,446.0)">
                <polygon class="sld-arrow-in" points="0,0 10,0 5,10" transform="rotate(180.0,5.0,5.0)"/>
                <polygon class="sld-arrow-out" points="5,0 10,10 0,10" transform="rotate(180.0,5.0,5.0)"/>
                <text class="sld-label" x="15.0" y="5.0">—</text>
            </g>
            <g class="sld-active-power sld-feeder-info sld-in" id="idCB_ARROW_ACTIVE" transform="translate(560.0,426.0)">
                <polygon class="sld-arrow-in" points="0,0 10,0 5,10" transform="rotate(180.0,5.0,5.0)"/>
                <polygon class="sld-arrow-out" points="5,0 10,10 0,10" transform="rotate(180.0,5.0,5.0)"/>
                <text class="sld-label" x="15.0" y="5.0">—</text>
            </g>
            <g class="sld-disconnector sld-open sld-disconnected" id="idX" transform="translate(561.0,248.0)">
                <path class="sld-sw-closed" d="M0,0 8,8 M8,0 0,8"/>
                <path class="sld-sw-open" d="M8,0 0,8"/>
            </g>
            <g class="sld-node sld-hidden-node sld-fictitious sld-disconnected" id="idINTERNAL_95_N_95_11" transform="translate(561.0,303.0)">
                <circle cx="4" cy="4" r="4"/>
            </g>
            <g class="sld-disconnector sld-open sld-disconnected" id="idAR" transform="translate(561.0,273.0)">
                <path class="sld-sw-closed" d="M0,0 8,8 M8,0 0,8"/>
                <path class="sld-sw-open" d="M8,0 0,8"/>
            </g>
            <g class="sld-breaker sld-open sld-disconnected" id="idBP" transform="translate(555.0,351.0)">
                <path class="sld-sw-closed" d="M1,1 V19 H19 V1z M10,5 V15"/>
                <path class="sld-sw-open" d="M1,1 V19 H19 V1z M5,10 H15"/>
            </g>
            <g class="sld-node sld-hidden-node sld-fictitious sld-disconnected" id="idINTERNAL_95_N_95_CB" transform="translate(561.0,411.0)">
                <circle cx="4" cy="4" r="4"/>
            </g>
            <g class="sld-generator sld-bottom-feeder sld-disconnected" id="idCB" transform="translate(559.0,471.0)">
                <circle cx="6" cy="6" r="6"/>
                <path d="M6,6 A 6 40 0 0 0 2,6"/>
                <path d="M6,6 A 6 40 0 0 0 10,6"/>
                <text class="sld-label" id="CB_S_LABEL" x="-5.0" y="17.0">CB</text>
            </g>
        </g>
        <g class="sld-extern-cell" id="idEXTERN_32_5">
            <g class="sld-wire sld-disconnected" id="_95_N_95_Z_95_INTERNAL_95_N_95_13">
                <polyline points="615.0,252.0,615.0,222.0"/>
            </g>
            <g class="sld-wire sld-disconnected" id="_95_N_95_AT_95_INTERNAL_95_N_95_13">
                <polyline points="615.0,277.0,615.0,222.0"/>
            </g>
            <g class="sld-wire sld-disconnected" id="_95_N_95_INTERNAL_95_N_95_13_95_BR">
                <polyline points="615.0,222.0,615.0,192.0"/>
            </g>
            <g class="sld-wire sld-disconnected" id="_95_N_95_BR_95_INTERNAL_95_N_95_CC">
                <polyline points="615.0,172.0,615.0,142.0"/>
            </g>
            <g class="sld-wire sld-disconnected" id="_95_N_95_INTERNAL_95_N_95_CC_95_CC">
                <polyline points="615.0,142.0,615.0,86.0"/>
            </g>
            <g class="sld-active-power sld-feeder-info sld-in" id="idCC_ARROW_ACTIVE" transform="translate(610.0,101.0)">
                <polygon class="sld-arrow-in" points="0,0 10,0 5,10"/>
                <polygon class="sld-arrow-out" points="5,0 10,10 0,10"/>
                <text class="sld-label" x="15.0" y="5.0">—</text>
            </g>
            <g class="sld-reactive-power sld-feeder-info sld-in" id="idCC_ARROW_REACTIVE" transform="translate(610.0,121.0)">
                <polygon class="sld-arrow-in" points="0,0 10,0 5,10"/>
                <polygon class="sld-arrow-out" points="5,0 10,10 0,10"/>
                <text class="sld-label" x="15.0" y="5.0">—</text>
            </g>
            <g class="sld-disconnector sld-open sld-disconnected" id="idZ" transform="translate(611.0,248.0)">
                <path class="sld-sw-closed" d="M0,0 8,8 M8,0 0,8"/>
                <path class="sld-sw-open" d="M8,0 0,8"/>
            </g>
            <g class="sld-node sld-hidden-node sld-fictitious sld-disconnected" id="idINTERNAL_95_N_95_13" transform="translate(611.0,218.0)">
                <circle cx="4" cy="4" r="4"/>
            </g>
            <g class="sld-disconnector sld-open sld-disconnected" id="idAT" transform="translate(611.0,273.0)">
                <path class="sld-sw-closed" d="M0,0 8,8 M8,0 0,8"/>
                <path class="sld-sw-open" d="M8,0 0,8"/>
            </g>
            <g class="sld-breaker sld-open sld-disconnected" id="idBR" transform="translate(605.0,172.0)">
                <path class="sld-sw-closed" d="M1,1 V19 H19 V1z M10,5 V15"/>
                <path class="sld-sw-open" d="M1,1 V19 H19 V1z M5,10 H15"/>
            </g>
            <g class="sld-node sld-hidden-node sld-fictitious sld-disconnected" id="idINTERNAL_95_N_95_CC" transform="translate(611.0,138.0)">
                <circle cx="4" cy="4" r="4"/>
            </g>
            <g class="sld-generator sld-top-feeder sld-disconnected" id="idCC" transform="translate(609.0,74.0)">
                <circle cx="6" cy="6" r="6"/>
                <path d="M6,6 A 6 40 0 0 0 2,6"/>
                <path d="M6,6 A 6 40 0 0 0 10,6"/>
                <text class="sld-label" id="CC_N_LABEL" x="-5.0" y="-5.0">CC</text>
            </g>
        </g>
        <g class="sld-extern-cell" id="idEXTERN_32_6">
            <g class="sld-wire sld-vl180to300-0" id="_95_N_95_AB_95_INTERNAL_95_N_95_15">
                <polyline points="165.0,252.0,165.0,222.0"/>
            </g>
            <g class="sld-wire sld-vl180to300-0" id="_95_N_95_AV_95_INTERNAL_95_N_95_15">
                <polyline points="165.0,277.0,165.0,222.0"/>
            </g>
            <g class="sld-wire sld-vl180to300-0" id="_95_N_95_INTERNAL_95_N_95_15_95_BT">
                <polyline points="165.0,222.0,165.0,192.0"/>
            </g>
            <g class="sld-wire sld-vl180to300-0" id="_95_N_95_BT_95_INTERNAL_95_N_95_CD">
                <polyline points="165.0,172.0,165.0,142.0"/>
            </g>
            <g class="sld-wire sld-vl180to300-0" id="_95_N_95_INTERNAL_95_N_95_CD_95_CD">
                <polyline points="165.0,142.0,165.0,86.0"/>
            </g>
            <g class="sld-active-power sld-feeder-info sld-in" id="idCD_ARROW_ACTIVE" transform="translate(160.0,101.0)">
                <polygon class="sld-arrow-in" points="0,0 10,0 5,10"/>
                <polygon class="sld-arrow-out" points="5,0 10,10 0,10"/>
                <text class="sld-label" x="15.0" y="5.0">-22</text>
            </g>
            <g class="sld-reactive-power sld-feeder-info sld-out" id="idCD_ARROW_REACTIVE" transform="translate(160.0,121.0)">
                <polygon class="sld-arrow-in" points="0,0 10,0 5,10"/>
                <polygon class="sld-arrow-out" points="5,0 10,10 0,10"/>
                <text class="sld-label" x="15.0" y="5.0">21</text>
            </g>
            <g class="sld-disconnector sld-closed sld-vl180to300-0" id="idAB" transform="translate(161.0,248.0)">
                <path class="sld-sw-closed" d="M0,0 8,8 M8,0 0,8"/>
                <path class="sld-sw-open" d="M8,0 0,8"/>
            </g>
            <g class="sld-node sld-hidden-node sld-fictitious sld-vl180to300-0" id="idINTERNAL_95_N_95_15" transform="translate(161.0,218.0)">
                <circle cx="4" cy="4" r="4"/>
            </g>
            <g class="sld-disconnector sld-open sld-disconnected" id="idAV" transform="translate(161.0,273.0)">
                <path class="sld-sw-closed" d="M0,0 8,8 M8,0 0,8"/>
                <path class="sld-sw-open" d="M8,0 0,8"/>
            </g>
            <g class="sld-breaker sld-closed sld-vl180to300-0" id="idBT" transform="translate(155.0,172.0)">
                <path class="sld-sw-closed" d="M1,1 V19 H19 V1z M10,5 V15"/>
                <path class="sld-sw-open" d="M1,1 V19 H19 V1z M5,10 H15"/>
            </g>
            <g class="sld-node sld-hidden-node sld-fictitious sld-vl180to300-0" id="idINTERNAL_95_N_95_CD" transform="translate(161.0,138.0)">
                <circle cx="4" cy="4" r="4"/>
            </g>
            <g class="sld-generator sld-top-feeder sld-vl180to300-0" id="idCD" transform="translate(159.0,74.0)">
                <circle cx="6" cy="6" r="6"/>
                <path d="M6,6 A 6 40 0 0 0 2,6"/>
                <path d="M6,6 A 6 40 0 0 0 10,6"/>
                <text class="sld-label" id="CD_N_LABEL" x="-5.0" y="-5.0">CD</text>
            </g>
        </g>
        <g class="sld-extern-cell" id="idEXTERN_32_7">
            <g class="sld-wire sld-vl180to300-0" id="_95_N_95_BL_95_INTERNAL_95_N_95_9">
                <polyline points="215.0,344.0,215.0,361.0"/>
            </g>
            <g class="sld-wire sld-vl180to300-0" id="_95_N_95_INTERNAL_95_N_95_9_95_BN">
                <polyline points="215.0,361.0,215.0,388.0"/>
            </g>
            <g class="sld-wire sld-vl180to300-0" id="_95_N_95_INTERNAL_95_N_95_8_95_BL">
                <polyline points="215.0,307.0,215.0,324.0"/>
            </g>
            <g class="sld-wire sld-vl180to300-0" id="_95_N_95_AD_95_INTERNAL_95_N_95_8">
                <polyline points="215.0,252.0,215.0,307.0"/>
            </g>
            <g class="sld-wire sld-vl180to300-0" id="_95_N_95_AX_95_INTERNAL_95_N_95_8">
                <polyline points="215.0,277.0,215.0,307.0"/>
            </g>
            <g class="sld-wire sld-vl180to300-0" id="_95_N_95_BN_95_INTERNAL_95_N_95_CI_95_TWO">
                <polyline points="215.0,388.0,215.0,415.0"/>
            </g>
            <g class="sld-wire sld-vl180to300-0" id="_95_N_95_INTERNAL_95_N_95_CI_95_TWO_95_CI_95_TWO">
                <polyline points="215.0,415.0,215.0,469.5"/>
            </g>
            <g class="sld-reactive-power sld-feeder-info sld-in" id="idCI_95_TWO_ARROW_REACTIVE" transform="translate(210.0,444.5)">
                <polygon class="sld-arrow-in" points="0,0 10,0 5,10" transform="rotate(180.0,5.0,5.0)"/>
                <polygon class="sld-arrow-out" points="5,0 10,10 0,10" transform="rotate(180.0,5.0,5.0)"/>
                <text class="sld-label" x="15.0" y="5.0">—</text>
            </g>
            <g class="sld-active-power sld-feeder-info sld-in" id="idCI_95_TWO_ARROW_ACTIVE" transform="translate(210.0,424.5)">
                <polygon class="sld-arrow-in" points="0,0 10,0 5,10" transform="rotate(180.0,5.0,5.0)"/>
                <polygon class="sld-arrow-out" points="5,0 10,10 0,10" transform="rotate(180.0,5.0,5.0)"/>
                <text class="sld-label" x="15.0" y="5.0">—</text>
            </g>
            <g class="sld-node sld-hidden-node sld-fictitious sld-vl180to300-0" id="idINTERNAL_95_N_95_9" transform="translate(211.0,357.0)">
                <circle cx="4" cy="4" r="4"/>
            </g>
            <g class="sld-breaker sld-closed sld-vl180to300-0" id="idBL" transform="translate(205.0,324.0)">
                <path class="sld-sw-closed" d="M1,1 V19 H19 V1z M10,5 V15"/>
                <path class="sld-sw-open" d="M1,1 V19 H19 V1z M5,10 H15"/>
            </g>
            <g class="sld-node sld-hidden-node sld-fictitious sld-vl180to300-0" id="idINTERNAL_95_N_95_8" transform="translate(211.0,303.0)">
                <circle cx="4" cy="4" r="4"/>
            </g>
            <g class="sld-disconnector sld-open sld-disconnected" id="idAD" transform="translate(211.0,248.0)">
                <path class="sld-sw-closed" d="M0,0 8,8 M8,0 0,8"/>
                <path class="sld-sw-open" d="M8,0 0,8"/>
            </g>
            <g class="sld-disconnector sld-closed sld-vl180to300-0" id="idAX" transform="translate(211.0,273.0)">
                <path class="sld-sw-closed" d="M0,0 8,8 M8,0 0,8"/>
                <path class="sld-sw-open" d="M8,0 0,8"/>
            </g>
            <g class="sld-disconnector sld-closed sld-vl180to300-0" id="idBN" transform="translate(211.0,384.0)">
                <path class="sld-sw-closed" d="M0,0 8,8 M8,0 0,8"/>
                <path class="sld-sw-open" d="M8,0 0,8"/>
            </g>
            <g class="sld-node sld-hidden-node sld-fictitious sld-vl180to300-0" id="idINTERNAL_95_N_95_CI_95_TWO" transform="translate(211.0,411.0)">
                <circle cx="4" cy="4" r="4"/>
            </g>
            <g class="sld-pst sld-bottom-feeder" id="idCI_95_TWO" transform="translate(208.0,469.5)">
                <path class="sld-pst-arrow" d="M14,0 0,14 M11,0 14,0 14,3" transform="rotate(180.0,7.0,7.5)"/>
                <circle class="sld-vl180to300-0 sld-winding" cx="7" cy="10" r="5" transform="rotate(180.0,7.0,7.5)"/>
                <circle class="sld-vl180to300-0 sld-winding" cx="7" cy="5" r="5" transform="rotate(180.0,7.0,7.5)"/>
                <text class="sld-label" id="CI_TWO_S_LABEL" x="-5.0" y="20.0">CI</text>
            </g>
        </g>
        <g class="sld-shunt-cell" id="idSHUNT_32_8">
            <g class="sld-wire sld-vl180to300-0" id="_95_N_95_INTERNAL_95_N_95_9_95_INTERNAL_95_N_95_Shunt_32_8_46_1">
                <polyline points="215.0,361.0,240.0,361.0"/>
            </g>
            <g class="sld-wire sld-vl180to300-0" id="_95_N_95_INTERNAL_95_N_95_Shunt_32_8_46_1_95_BH">
                <polyline points="240.0,361.0,265.0,361.0"/>
            </g>
            <g class="sld-wire sld-vl180to300-1" id="_95_N_95_BH_95_INTERNAL_95_N_95_Shunt_32_8_46_2">
                <polyline points="265.0,361.0,290.0,361.0"/>
            </g>
            <g class="sld-wire sld-vl180to300-1" id="_95_N_95_INTERNAL_95_N_95_Shunt_32_8_46_2_95_INTERNAL_95_N_95_3">
                <polyline points="290.0,361.0,340.0,361.0"/>
            </g>
            <g class="sld-node sld-hidden-node sld-fictitious sld-vl180to300-0" id="idINTERNAL_95_N_95_9" transform="translate(211.0,357.0)">
                <circle cx="4" cy="4" r="4"/>
            </g>
            <g class="sld-node sld-hidden-node sld-fictitious sld-vl180to300-0" id="idINTERNAL_95_N_95_Shunt_32_8_46_1" transform="translate(236.0,357.0)">
                <circle cx="4" cy="4" r="4"/>
            </g>
            <g class="sld-disconnector sld-open sld-disconnected" id="idBH" transform="translate(261.0,357.0)">
                <path class="sld-sw-closed" d="M0,0 8,8 M8,0 0,8"/>
                <path class="sld-sw-open" d="M8,0 0,8"/>
            </g>
            <g class="sld-node sld-hidden-node sld-fictitious sld-vl180to300-1" id="idINTERNAL_95_N_95_Shunt_32_8_46_2" transform="translate(286.0,357.0)">
                <circle cx="4" cy="4" r="4"/>
            </g>
            <g class="sld-node sld-hidden-node sld-fictitious sld-vl180to300-1" id="idINTERNAL_95_N_95_3" transform="translate(336.0,357.0)">
                <circle cx="4" cy="4" r="4"/>
            </g>
        </g>
        <g class="sld-extern-cell" id="idEXTERN_32_9">
            <g class="sld-wire sld-vl180to300-1" id="_95_N_95_BB_95_INTERNAL_95_N_95_3">
                <polyline points="340.0,344.0,340.0,361.0"/>
            </g>
            <g class="sld-wire sld-vl180to300-1" id="_95_N_95_INTERNAL_95_N_95_3_95_BD">
                <polyline points="340.0,361.0,315.0,361.0,315.0,378.0"/>
            </g>
            <g class="sld-wire sld-vl180to300-1" id="_95_N_95_INTERNAL_95_N_95_3_95_BF">
                <polyline points="340.0,361.0,365.0,361.0,365.0,388.0"/>
            </g>
            <g class="sld-wire sld-disconnected" id="_95_N_95_INTERNAL_95_N_95_2_95_BB">
                <polyline points="340.0,307.0,340.0,324.0"/>
            </g>
            <g class="sld-wire sld-disconnected" id="_95_N_95_AF_95_INTERNAL_95_N_95_2">
                <polyline points="340.0,252.0,340.0,307.0"/>
            </g>
            <g class="sld-wire sld-disconnected" id="_95_N_95_AZ_95_INTERNAL_95_N_95_2">
                <polyline points="340.0,277.0,340.0,307.0"/>
            </g>
            <g class="sld-wire sld-vl180to300-1" id="_95_N_95_BD_95_INTERNAL_95_N_95_CE">
                <polyline points="315.0,398.0,315.0,415.0"/>
            </g>
            <g class="sld-wire sld-vl180to300-1" id="_95_N_95_INTERNAL_95_N_95_CE_95_CE">
                <polyline points="315.0,415.0,315.0,472.5"/>
            </g>
            <g class="sld-reactive-power sld-feeder-info sld-out" id="idCE_ARROW_REACTIVE" transform="translate(310.0,447.5)">
                <polygon class="sld-arrow-in" points="0,0 10,0 5,10" transform="rotate(180.0,5.0,5.0)"/>
                <polygon class="sld-arrow-out" points="5,0 10,10 0,10" transform="rotate(180.0,5.0,5.0)"/>
                <text class="sld-label" x="15.0" y="5.0">50</text>
            </g>
            <g class="sld-active-power sld-feeder-info sld-in" id="idCE_ARROW_ACTIVE" transform="translate(310.0,427.5)">
                <polygon class="sld-arrow-in" points="0,0 10,0 5,10" transform="rotate(180.0,5.0,5.0)"/>
                <polygon class="sld-arrow-out" points="5,0 10,10 0,10" transform="rotate(180.0,5.0,5.0)"/>
                <text class="sld-label" x="15.0" y="5.0">-72</text>
            </g>
            <g class="sld-wire sld-vl180to300-1" id="_95_N_95_BF_95_INTERNAL_95_N_95_CJ_95_TWO">
                <polyline points="365.0,388.0,365.0,415.0"/>
            </g>
            <g class="sld-wire sld-vl180to300-1" id="_95_N_95_INTERNAL_95_N_95_CJ_95_TWO_95_CJ_95_TWO">
                <polyline points="365.0,415.0,365.0,477.0"/>
            </g>
            <g class="sld-reactive-power sld-feeder-info sld-in" id="idCJ_95_TWO_ARROW_REACTIVE" transform="translate(360.0,452.0)">
                <polygon class="sld-arrow-in" points="0,0 10,0 5,10" transform="rotate(180.0,5.0,5.0)"/>
                <polygon class="sld-arrow-out" points="5,0 10,10 0,10" transform="rotate(180.0,5.0,5.0)"/>
                <text class="sld-label" x="15.0" y="5.0">—</text>
            </g>
            <g class="sld-active-power sld-feeder-info sld-in" id="idCJ_95_TWO_ARROW_ACTIVE" transform="translate(360.0,432.0)">
                <polygon class="sld-arrow-in" points="0,0 10,0 5,10" transform="rotate(180.0,5.0,5.0)"/>
                <polygon class="sld-arrow-out" points="5,0 10,10 0,10" transform="rotate(180.0,5.0,5.0)"/>
                <text class="sld-label" x="15.0" y="5.0">—</text>
            </g>
            <g class="sld-node sld-hidden-node sld-fictitious sld-vl180to300-1" id="idINTERNAL_95_N_95_3" transform="translate(336.0,357.0)">
                <circle cx="4" cy="4" r="4"/>
            </g>
            <g class="sld-breaker sld-open sld-fictitious sld-disconnected" id="idBB" transform="translate(330.0,324.0)">
                <path class="sld-sw-closed" d="M1,1 V19 H19 V1z M10,5 V15"/>
                <path class="sld-sw-open" d="M1,1 V19 H19 V1z M5,10 H15"/>
            </g>
            <g class="sld-node sld-hidden-node sld-fictitious sld-disconnected" id="idINTERNAL_95_N_95_2" transform="translate(336.0,303.0)">
                <circle cx="4" cy="4" r="4"/>
            </g>
            <g class="sld-disconnector sld-open sld-fictitious sld-disconnected" id="idAF" transform="translate(336.0,248.0)">
                <path class="sld-sw-closed" d="M0,0 8,8 M8,0 0,8"/>
                <path class="sld-sw-open" d="M8,0 0,8"/>
            </g>
            <g class="sld-disconnector sld-open sld-fictitious sld-disconnected" id="idAZ" transform="translate(336.0,273.0)">
                <path class="sld-sw-closed" d="M0,0 8,8 M8,0 0,8"/>
                <path class="sld-sw-open" d="M8,0 0,8"/>
            </g>
            <g class="sld-breaker sld-closed sld-vl180to300-1" id="idBD" transform="translate(305.0,378.0)">
                <path class="sld-sw-closed" d="M1,1 V19 H19 V1z M10,5 V15"/>
                <path class="sld-sw-open" d="M1,1 V19 H19 V1z M5,10 H15"/>
            </g>
            <g class="sld-node sld-hidden-node sld-fictitious sld-vl180to300-1" id="idINTERNAL_95_N_95_CE" transform="translate(311.0,411.0)">
                <circle cx="4" cy="4" r="4"/>
            </g>
            <g class="sld-load sld-bottom-feeder sld-vl180to300-1" id="idCE" transform="translate(307.0,472.5)">
                <rect height="9" width="16"/>
                <line x1="0" x2="16" y1="0" y2="9"/>
                <line x1="16" x2="0" y1="0" y2="9"/>
                <text class="sld-label" id="CE_S_LABEL" x="-5.0" y="14.0">CE</text>
            </g>
            <g class="sld-disconnector sld-closed sld-vl180to300-1" id="idBF" transform="translate(361.0,384.0)">
                <path class="sld-sw-closed" d="M0,0 8,8 M8,0 0,8"/>
                <path class="sld-sw-open" d="M8,0 0,8"/>
            </g>
            <g class="sld-node sld-hidden-node sld-fictitious sld-vl180to300-1" id="idINTERNAL_95_N_95_CJ_95_TWO" transform="translate(361.0,411.0)">
                <circle cx="4" cy="4" r="4"/>
            </g>
            <g class="sld-bottom-feeder" id="idCJ_95_TWO" transform="translate(365.0,477.0)">
                <text class="sld-label" id="CJ_TWO_S_LABEL" x="-5.0" y="5.0">CJ</text>
            </g>
        </g>
    </g>
</svg>
