<?xml version="1.0" encoding="UTF-8" standalone="no"?>
<svg xmlns="http://www.w3.org/2000/svg" version="1.0" height="12" width="12">
    <path d="M 5.98,0 -0.02,6 5.98,12 12,6 Z M 5.82,2.82 C 6.4,2.82 6.88,2.98 7.26,3.26 7.61,3.55 7.68,3.93 7.68,4.41 7.68,4.67 7.68,4.91 7.61,5.15 7.47,5.36 7.4,5.55 7.26,5.7 7.04,5.87 6.88,6.03 6.7,6.16 6.46,6.27 6.25,6.42 6.03,6.56 V 7.47 H 5.26 V 6.21 C 5.45,6.11 5.63,6 5.85,5.89 6.06,5.76 6.25,5.65 6.37,5.52 6.57,5.36 6.67,5.2 6.75,5.07 6.85,4.91 6.91,4.7 6.91,4.46 6.91,4.17 6.8,3.93 6.59,3.76 6.35,3.61 6.09,3.53 5.74,3.53 5.45,3.53 5.16,3.58 4.92,3.69 4.63,3.76 4.41,3.87 4.25,3.96 H 4.22 V 3.1 C 4.41,3.02 4.65,2.98 4.94,2.93 5.26,2.84 5.53,2.82 5.82,2.82 Z M 5.26,8.25 H 6.09 V 9.17 H 5.26 Z"/>
</svg>
