<?xml version="1.0" encoding="UTF-8" standalone="no"?>
<svg version="1.0" xmlns="http://www.w3.org/2000/svg" width="50" height="50" style="fill:none; stroke:black; stroke-width: 1; stroke-linecap:round">
  <path d="m 28.2,34.8 c 0.8,-2.2 1.1,-4.6 1.0,-7 h 4.0 c 0,3 0.5,5.8 1.5,8.2 h-7.5
  M34.5,35.0 h 2.4 C 36.2,33.1 35.7,31.9 35.8,29.1 H33.8
  M33,30 H30.5 M35.5,31 H34.5
  M30.43,21.87 c -0.66,0.1 -0.91,0.76 -0.5,1.22 -1,0.97 -0.47,1.99 0.57,2.12 1.18,2.17 3.38,0.51 2.34,-1.10 1.04,-1.63 -0.54,-2.27 -1.72,-1.55 1.65,-0.67 1.23,-2.59 -0.17,-2.13"/>
</svg>
