<?xml version="1.0" encoding="UTF-8" standalone="no"?>
<svg version="1.0" xmlns="http://www.w3.org/2000/svg" width="50" height="50" style="fill:none; stroke:black; stroke-width: 1; stroke-linecap:round">
  <path d="
  M32.285,21.820 c -0.910,1.184 -0.697,2.569 0,3.475 0.669,-0.853 0.886,-2.284 0,-3.475z
  M32.286,33.472 c -0.823,1.088 -0.795,2.334 0,3.475 0.822,-1.134 0.778,-2.354 0,-3.475z
  M36.406,29.383 c 1.170,0.887 2.646,0.667 3.475,0 -0.742,-0.656 -2.382,-0.901 -3.475,0z
  M28.165,29.383 c -1.273,-0.912 -2.528,-0.690 -3.475,0 1.173,0.893 2.527,0.706 3.475,0z
  M35.199,32.297 c 0.088,1.027 0.858,2.161 2.457,2.457 -0.209,-1.491 -1.359,-2.324 -2.457,-2.457z
  M29.372,26.469 c -0.187,-1.340 -1.174,-2.299 -2.457,-2.457 0.190,1.262 1.140,2.268 2.457,2.457z
  M29.371,32.297 c -1.488,0.237 -2.259,1.210 -2.457,2.457 1.504,-0.232 2.239,-1.172 2.457,-2.457z
  M35.199,26.470 c 1.448,-0.185 2.280,-1.263 2.457,-2.457 -1.200,0.123 -2.230,1.114 -2.457,2.457z"/>
  <circle r="3.8" cy="29.390" cx="32.303" />
</svg>
