<?xml version="1.0" encoding="UTF-8" standalone="no"?>
<svg width="1241.00" height="1000.00" xmlns="http://www.w3.org/2000/svg">
<style>
<![CDATA[
circle {fill: purple;}
line {stroke: purple; stroke-width: 2}
]]>
</style>
<g>
<title>Vertex 0</title>
<circle cx="812.56" cy="491.84" r="10"/>
</g>
<g>
<title>Vertex 1</title>
<circle cx="470.90" cy="454.52" r="10"/>
</g>
<g>
<title>Vertex 2</title>
<circle cx="752.50" cy="648.25" r="10"/>
</g>
<g>
<title>Vertex 3</title>
<circle cx="242.96" cy="258.70" r="10"/>
</g>
<g>
<title>Vertex 4</title>
<circle cx="183.42" cy="97.15" r="10"/>
</g>
<g>
<title>Vertex 5</title>
<circle cx="60.00" cy="218.75" r="10"/>
</g>
<g>
<title>Vertex 6</title>
<circle cx="1181.00" cy="60.00" r="10"/>
</g>
<g>
<title>Vertex 7</title>
<circle cx="1035.10" cy="940.00" r="10"/>
</g>
<g>
<title>Vertex 8</title>
<circle cx="927.86" cy="698.59" r="10"/>
</g>
<g>
<title>Vertex 9</title>
<circle cx="871.13" cy="895.60" r="10"/>
</g>
<line x1="752.50" y1="648.25" x2="812.56" y2="491.84"/>
<line x1="752.50" y1="648.25" x2="470.90" y2="454.52"/>
<line x1="242.96" y1="258.70" x2="470.90" y2="454.52"/>
<line x1="927.86" y1="698.59" x2="752.50" y2="648.25"/>
<line x1="871.13" y1="895.60" x2="752.50" y2="648.25"/>
<line x1="183.42" y1="97.15" x2="242.96" y2="258.70"/>
<line x1="60.00" y1="218.75" x2="242.96" y2="258.70"/>
<line x1="60.00" y1="218.75" x2="183.42" y2="97.15"/>
<line x1="871.13" y1="895.60" x2="1035.10" y2="940.00"/>
</svg>
