<?xml version="1.0" encoding="UTF-8" standalone="no"?>
<svg width="1553.30" height="1000.00" xmlns="http://www.w3.org/2000/svg">
<style>
<![CDATA[
circle {fill: purple;}
line {stroke: purple; stroke-width: 2}
]]>
</style>
<g>
<title>Vertex 0</title>
<circle cx="973.78" cy="60.00" r="10"/>
</g>
<g>
<title>Vertex 1</title>
<circle cx="562.64" cy="289.37" r="10"/>
</g>
<g>
<title>Vertex 2</title>
<circle cx="929.20" cy="262.09" r="10"/>
</g>
<g>
<title>Vertex 3</title>
<circle cx="240.81" cy="333.70" r="10"/>
</g>
<g>
<title>Vertex 4</title>
<circle cx="61.73" cy="207.73" r="10"/>
</g>
<g>
<title>Vertex 5</title>
<circle cx="60.00" cy="399.00" r="10"/>
</g>
<g>
<title>Vertex 6</title>
<circle cx="1493.30" cy="89.34" r="10"/>
</g>
<g>
<title>Vertex 7</title>
<circle cx="1232.99" cy="693.44" r="10"/>
</g>
<g>
<title>Vertex 8</title>
<circle cx="1114.84" cy="216.48" r="10"/>
</g>
<g>
<title>Vertex 9</title>
<circle cx="1093.39" cy="524.26" r="10"/>
</g>
<line x1="929.20" y1="262.09" x2="973.78" y2="60.00"/>
<line x1="929.20" y1="262.09" x2="562.64" y2="289.37"/>
<line x1="240.81" y1="333.70" x2="562.64" y2="289.37"/>
<line x1="1114.84" y1="216.48" x2="929.20" y2="262.09"/>
<line x1="1093.39" y1="524.26" x2="929.20" y2="262.09"/>
<line x1="61.73" y1="207.73" x2="240.81" y2="333.70"/>
<line x1="60.00" y1="399.00" x2="240.81" y2="333.70"/>
<line x1="60.00" y1="399.00" x2="61.73" y2="207.73"/>
<line x1="1093.39" y1="524.26" x2="1232.99" y2="693.44"/>
</svg>
