<svg xmlns="http://www.w3.org/2000/svg" version="1.0" height="16" width="16">
  <path d="M8,0 A8,8 0 0 0 8,16 8,8 0 0 0 8,0Z M11.1,3.7 l0.9,0.9 -7.9,7.8 -0.9,-0.9Z M4.6,3.6 c1.3,0 1.25,1.1 1.9,1.1 0.65,0 0.7,-0.65 0.7,-1.1 h1.2 c0,1.1 -0.4,2.75 -1.75,2.75 -1.3,0 -1,-1.1 -1.7,-1.1 -0.65,0 -0.65,0.65 -0.65,1.1 h-1.4 c0,-1.15 0.4,-2.85 1.7,-2.75Z M7.2,10.15 h5.9 v1 h-5.9Z m0,2 h1.5 v1 h-1.5Z m2.2,0 h1.5 v1 h-1.5Z m2.2,0 h1.5 v1 h-1.5Z M6.5367187,3.0999999 H 4.8061523 V 0.70073236 h 0.61875 V 2.6359374 h 1.1118164 z M7.9933594,3.1467284 q -0.2674805,0 -0.4946778,-0.078955 Q 7.2730957,2.9888183 7.1103516,2.8325194 6.9476074,2.6762206 6.857373,2.442578 6.76875,2.2089355 6.76875,1.9027831 q 0,-0.285205 0.0854,-0.5172363 0.0854,-0.2320312 0.2481445,-0.39799804 0.1562988,-0.15952148 0.3867188,-0.2465332 0.2320312,-0.0870117 0.505957,-0.0870117 0.1514648,0 0.2723144,0.0177246 0.122461,0.0161133 0.225586,0.0435059 0.1079589,0.0306152 0.1949707,0.0692871 0.088623,0.0370605 0.1546875,0.0692871 V 1.435498 H 8.7716308 Q 8.7265136,1.3968261 8.6572265,1.3436523 8.5895508,1.2904784 8.502539,1.2389159 8.413916,1.1873534 8.310791,1.1519042 8.207666,1.116455 8.090039,1.116455 q -0.1305175,0 -0.2481445,0.041894 -0.1176269,0.040283 -0.2175293,0.1353516 -0.095068,0.091846 -0.1546875,0.2433105 -0.058008,0.1514649 -0.058008,0.3673829 0,0.2255859 0.062842,0.3770507 0.064453,0.1514649 0.1611328,0.2384766 0.098291,0.088623 0.2191406,0.1272949 0.1208496,0.037061 0.2384766,0.037061 0.112793,0 0.2223633,-0.033838 0.1111816,-0.033838 0.2046386,-0.091846 0.078955,-0.046729 0.1466309,-0.099902 0.067676,-0.053174 0.1111816,-0.091846 h 0.064453 V 2.940478 Q 8.7522951,2.980761 8.670117,3.01621 8.587939,3.051659 8.4977049,3.07744 8.3800779,3.111278 8.2769529,3.129003 8.1738279,3.146728 7.9933594,3.1467284 Z M10.381347,3.1467284 q -0.26748,0 -0.4946773,-0.078955 Q 9.6610838,2.9888183 9.4983396,2.8325194 9.3355955,2.6762206 9.2453611,2.442578 9.1567381,2.2089355 9.1567381,1.9027831 q 0,-0.285205 0.0854,-0.5172363 0.0854,-0.2320312 0.2481445,-0.39799804 0.1562988,-0.15952148 0.3867187,-0.2465332 0.2320317,-0.0870117 0.5059577,-0.0870117 0.151465,0 0.272314,0.0177246 0.122461,0.0161133 0.225586,0.0435059 0.107959,0.0306152 0.194971,0.0692871 0.08862,0.0370605 0.154687,0.0692871 V 1.435498 h -0.0709 q -0.04512,-0.038672 -0.114404,-0.091846 -0.06768,-0.053174 -0.154688,-0.1047364 -0.08862,-0.051563 -0.191748,-0.087012 -0.103125,-0.035449 -0.220752,-0.035449 -0.130517,0 -0.248144,0.041894 -0.117627,0.040283 -0.21753,0.1353516 -0.095068,0.091846 -0.1546876,0.2433105 -0.058008,0.1514649 -0.058008,0.3673829 0,0.2255859 0.062842,0.3770507 0.064453,0.1514649 0.1611336,0.2384766 0.09829,0.088623 0.21914,0.1272949 0.12085,0.037061 0.238477,0.037061 0.112793,0 0.222363,-0.033838 0.111182,-0.033838 0.204639,-0.091846 0.07896,-0.046729 0.146631,-0.099902 0.06767,-0.053174 0.111181,-0.091846 h 0.06445 v 0.5736328 q -0.09023,0.040283 -0.172412,0.075732 -0.08218,0.035449 -0.172412,0.06123 -0.117627,0.033838 -0.220752,0.051563 -0.103125,0.017725 -0.283594,0.017725 z"/>
</svg>
