<?xml version="1.0" encoding="UTF-8" standalone="no"?>
<svg xmlns="http://www.w3.org/2000/svg" version="1.0" height="16" width="16">
    <path d="M 7.99,0 0,7.99 8.02,16 16,8.02 Z M 7.76,3.02 C 8.8,3.02 9.64,3.26 10.3,3.74 10.9,4.21 11.2,4.83 11.2,5.6 11.2,6.05 11.1,6.44 11,6.78 10.9,7.11 10.7,7.4 10.5,7.65 10.2,7.9 9.93,8.12 9.62,8.32 9.31,8.51 8.95,8.69 8.55,8.85 V 10.3 H 6.33 V 8.14 C 6.63,8.05 6.9,7.97 7.14,7.89 7.39,7.8 7.64,7.66 7.9,7.46 8.15,7.29 8.34,7.08 8.48,6.85 8.63,6.62 8.7,6.35 8.7,6.06 8.7,5.63 8.56,5.32 8.28,5.13 8.01,4.95 7.64,4.86 7.15,4.86 6.85,4.86 6.51,4.93 6.13,5.06 5.75,5.2 5.4,5.37 5.09,5.58 H 4.83 V 3.59 C 5.1,3.47 5.52,3.35 6.07,3.23 6.63,3.09 7.19,3.02 7.76,3.02 Z M 6.19,11.2 H 8.72 V 13 H 6.19 Z"/>
</svg>
