<svg xmlns="http://www.w3.org/2000/svg" version="1.0" height="16" width="16">
  <path d="M8,0 A8,8 0 0 0 8,16 8,8 0 0 0 8,0Z M11.1,3.7 l0.9,0.9 -7.9,7.8 -0.9,-0.9Z M4.6,3.6 c1.3,0 1.25,1.1 1.9,1.1 0.65,0 0.7,-0.65 0.7,-1.1 h1.2 c0,1.1 -0.4,2.75 -1.75,2.75 -1.3,0 -1,-1.1 -1.7,-1.1 -0.65,0 -0.65,0.65 -0.65,1.1 h-1.4 c0,-1.15 0.4,-2.85 1.7,-2.75Z M7.2,10.15 h5.9 v1 h-5.9Z m0,2 h1.5 v1 h-1.5Z m2.2,0 h1.5 v1 h-1.5Z m2.2,0 h1.5 v1 h-1.5Z M 6.967916,0.88249792 6.0929648,3.2817655 H 5.4000937 L 4.5251426,0.88249792 H 5.1745078 L 5.7545859,2.5679471 6.334664,0.88249792 Z M9.2334432,2.5276639 q 0,0.3544922 -0.3013184,0.5768555 -0.299707,0.2207519 -0.815332,0.2207519 -0.2980957,0 -0.520459,-0.051562 Q 7.3755819,3.220535 7.1822225,3.1399686 V 2.5647245 h 0.067676 q 0.191748,0.1530761 0.4286133,0.2352539 0.2384765,0.082178 0.4576171,0.082178 0.056396,0 0.1482422,-0.00967 0.091846,-0.00967 0.1498535,-0.032227 0.070899,-0.029004 0.1160157,-0.07251 0.046729,-0.043506 0.046729,-0.1289063 0,-0.078955 -0.067676,-0.1353515 Q 8.4632283,2.4454862 8.3343221,2.4148709 8.1989705,2.3826444 8.0475057,2.3552518 7.8976522,2.3262479 7.7655233,2.282742 7.4625936,2.184451 7.3288534,2.0168729 7.1967245,1.8476835 7.1967245,1.5979276 q 0,-0.3351563 0.299707,-0.5462402 0.3013183,-0.21269534 0.7734375,-0.21269534 0.2368652,0 0.4672851,0.0467285 0.2320313,0.0451172 0.4012207,0.11440434 V 1.5528104 H 9.0723104 Q 8.9272908,1.4367948 8.7162069,1.359451 8.5067342,1.280496 8.2875936,1.280496 q -0.077344,0 -0.1546875,0.011279 -0.075732,0.00967 -0.1466309,0.038672 -0.062842,0.02417 -0.107959,0.074121 -0.045117,0.04834 -0.045117,0.1111817 0,0.095068 0.07251,0.1466308 0.07251,0.049951 0.2739258,0.091846 0.1321289,0.027393 0.2529785,0.053174 0.1224609,0.025781 0.2626465,0.070898 0.2755371,0.090234 0.4060547,0.2465332 0.1321289,0.1546875 0.1321285,0.4028322 z M10.741646,3.328494 q -0.26748,0 -0.494678,-0.078955 Q 10.021382,3.1705838 9.8586383,3.014285 9.6958941,2.8579862 9.6056598,2.6243436 9.5170367,2.390701 9.5170367,2.0845487 q 0,-0.2852051 0.0854,-0.5172363 0.0854,-0.2320313 0.2481445,-0.3979981 Q 10.00688,1.0097928 10.2373,0.92278112 q 0.232032,-0.0870117 0.505957,-0.0870117 0.151465,0 0.272315,0.0177246 0.122461,0.0161133 0.225586,0.0435059 0.107959,0.0306152 0.19497,0.0692871 0.08862,0.0370605 0.154688,0.0692871 v 0.5816894 h -0.0709 q -0.04512,-0.038672 -0.114405,-0.091846 -0.06768,-0.053174 -0.154687,-0.1047363 -0.08862,-0.051562 -0.191748,-0.087012 -0.103125,-0.035449 -0.220752,-0.035449 -0.130518,0 -0.248145,0.041894 -0.117627,0.040283 -0.217529,0.1353516 -0.09507,0.091846 -0.154688,0.2433105 -0.05801,0.1514648 -0.05801,0.3673828 0,0.2255859 0.06284,0.3770508 0.06445,0.1514648 0.161133,0.2384765 0.09829,0.088623 0.219141,0.127295 0.120849,0.03706 0.238476,0.03706 0.112793,0 0.222364,-0.033838 0.111181,-0.033838 0.204638,-0.091846 0.07896,-0.046728 0.146631,-0.099902 0.06768,-0.053174 0.111182,-0.091846 h 0.06445 V 3.122244 q -0.09023,0.040283 -0.172412,0.075732 -0.08218,0.035449 -0.172412,0.061231 -0.117627,0.033838 -0.220752,0.051562 -0.103125,0.017725 -0.283594,0.017725 z"/>
</svg>
